<svg id="visual" viewBox="0 0 900 600" width="900" height="600" xmlns="http://www.w3.org/2000/svg" xmlns:xlink="http://www.w3.org/1999/xlink" version="1.1"><rect x="0" y="0" width="900" height="600" fill="#B9D2B1"></rect><path d="M0 235L9.3 228.7C18.7 222.3 37.3 209.7 56.2 207.3C75 205 94 213 112.8 220C131.7 227 150.3 233 169 231.3C187.7 229.7 206.3 220.3 225 214.8C243.7 209.3 262.3 207.7 281.2 206.3C300 205 319 204 337.8 211.3C356.7 218.7 375.3 234.3 394 234.3C412.7 234.3 431.3 218.7 450 209.8C468.7 201 487.3 199 506.2 201C525 203 544 209 562.8 213.7C581.7 218.3 600.3 221.7 619 224C637.7 226.3 656.3 227.7 675 222.2C693.7 216.7 712.3 204.3 731.2 205.3C750 206.3 769 220.7 787.8 228.7C806.7 236.7 825.3 238.3 844 233.3C862.7 228.3 881.3 216.7 890.7 210.8L900 205L900 601L890.7 601C881.3 601 862.7 601 844 601C825.3 601 806.7 601 787.8 601C769 601 750 601 731.2 601C712.3 601 693.7 601 675 601C656.3 601 637.7 601 619 601C600.3 601 581.7 601 562.8 601C544 601 525 601 506.2 601C487.3 601 468.7 601 450 601C431.3 601 412.7 601 394 601C375.3 601 356.7 601 337.8 601C319 601 300 601 281.2 601C262.3 601 243.7 601 225 601C206.3 601 187.7 601 169 601C150.3 601 131.7 601 112.8 601C94 601 75 601 56.2 601C37.3 601 18.7 601 9.3 601L0 601Z" fill="#a18276"></path><path d="M0 293L9.3 286.8C18.7 280.7 37.3 268.3 56.2 267.8C75 267.3 94 278.7 112.8 279.3C131.7 280 150.3 270 169 269.3C187.7 268.7 206.3 277.3 225 281.3C243.7 285.3 262.3 284.7 281.2 284C300 283.3 319 282.7 337.8 280.5C356.7 278.3 375.3 274.7 394 271.2C412.7 267.7 431.3 264.3 450 268.3C468.7 272.3 487.3 283.7 506.2 291.3C525 299 544 303 562.8 298.8C581.7 294.7 600.3 282.3 619 276.5C637.7 270.7 656.3 271.3 675 270.5C693.7 269.7 712.3 267.3 731.2 270C750 272.7 769 280.3 787.8 281.7C806.7 283 825.3 278 844 277.8C862.7 277.7 881.3 282.3 890.7 284.7L900 287L900 601L890.7 601C881.3 601 862.7 601 844 601C825.3 601 806.7 601 787.8 601C769 601 750 601 731.2 601C712.3 601 693.7 601 675 601C656.3 601 637.7 601 619 601C600.3 601 581.7 601 562.8 601C544 601 525 601 506.2 601C487.3 601 468.7 601 450 601C431.3 601 412.7 601 394 601C375.3 601 356.7 601 337.8 601C319 601 300 601 281.2 601C262.3 601 243.7 601 225 601C206.3 601 187.7 601 169 601C150.3 601 131.7 601 112.8 601C94 601 75 601 56.2 601C37.3 601 18.7 601 9.3 601L0 601Z" fill="#b19283"></path><path d="M0 366L9.3 358.5C18.7 351 37.3 336 56.2 332C75 328 94 335 112.8 336.2C131.7 337.3 150.3 332.7 169 334.3C187.7 336 206.3 344 225 344.8C243.7 345.7 262.3 339.3 281.2 334.3C300 329.3 319 325.7 337.8 330.2C356.7 334.7 375.3 347.3 394 352.2C412.7 357 431.3 354 450 349.2C468.7 344.3 487.3 337.7 506.2 339.2C525 340.7 544 350.3 562.8 350.5C581.7 350.7 600.3 341.3 619 342.5C637.7 343.7 656.3 355.3 675 360.8C693.7 366.3 712.3 365.7 731.2 359.7C750 353.7 769 342.3 787.8 337C806.7 331.7 825.3 332.3 844 337.2C862.7 342 881.3 351 890.7 355.5L900 360L900 601L890.7 601C881.3 601 862.7 601 844 601C825.3 601 806.7 601 787.8 601C769 601 750 601 731.2 601C712.3 601 693.7 601 675 601C656.3 601 637.7 601 619 601C600.3 601 581.7 601 562.8 601C544 601 525 601 506.2 601C487.3 601 468.7 601 450 601C431.3 601 412.7 601 394 601C375.3 601 356.7 601 337.8 601C319 601 300 601 281.2 601C262.3 601 243.7 601 225 601C206.3 601 187.7 601 169 601C150.3 601 131.7 601 112.8 601C94 601 75 601 56.2 601C37.3 601 18.7 601 9.3 601L0 601Z" fill="#c2a38f"></path><path d="M0 391L9.3 390.5C18.7 390 37.3 389 56.2 392.2C75 395.3 94 402.7 112.8 406C131.7 409.3 150.3 408.7 169 406.8C187.7 405 206.3 402 225 401.5C243.7 401 262.3 403 281.2 403.2C300 403.3 319 401.7 337.8 402C356.7 402.3 375.3 404.7 394 407.2C412.7 409.7 431.3 412.3 450 412.3C468.7 412.3 487.3 409.7 506.2 407.2C525 404.7 544 402.3 562.8 402.8C581.7 403.3 600.3 406.7 619 404C637.7 401.3 656.3 392.7 675 393.3C693.7 394 712.3 404 731.2 410.5C750 417 769 420 787.8 420.7C806.7 421.3 825.3 419.7 844 419.3C862.7 419 881.3 420 890.7 420.5L900 421L900 601L890.7 601C881.3 601 862.7 601 844 601C825.3 601 806.7 601 787.8 601C769 601 750 601 731.2 601C712.3 601 693.7 601 675 601C656.3 601 637.7 601 619 601C600.3 601 581.7 601 562.8 601C544 601 525 601 506.2 601C487.3 601 468.7 601 450 601C431.3 601 412.7 601 394 601C375.3 601 356.7 601 337.8 601C319 601 300 601 281.2 601C262.3 601 243.7 601 225 601C206.3 601 187.7 601 169 601C150.3 601 131.7 601 112.8 601C94 601 75 601 56.2 601C37.3 601 18.7 601 9.3 601L0 601Z" fill="#d2b39d"></path><path d="M0 484L9.3 483.7C18.7 483.3 37.3 482.7 56.2 480.5C75 478.3 94 474.7 112.8 475.8C131.7 477 150.3 483 169 485.7C187.7 488.3 206.3 487.7 225 485C243.7 482.3 262.3 477.7 281.2 471.2C300 464.7 319 456.3 337.8 456.5C356.7 456.7 375.3 465.3 394 470.8C412.7 476.3 431.3 478.7 450 476.5C468.7 474.3 487.3 467.7 506.2 468C525 468.3 544 475.7 562.8 476.2C581.7 476.7 600.3 470.3 619 467.2C637.7 464 656.3 464 675 464C693.7 464 712.3 464 731.2 467.3C750 470.7 769 477.3 787.8 475.5C806.7 473.7 825.3 463.3 844 457.3C862.7 451.3 881.3 449.7 890.7 448.8L900 448L900 601L890.7 601C881.3 601 862.7 601 844 601C825.3 601 806.7 601 787.8 601C769 601 750 601 731.2 601C712.3 601 693.7 601 675 601C656.3 601 637.7 601 619 601C600.3 601 581.7 601 562.8 601C544 601 525 601 506.2 601C487.3 601 468.7 601 450 601C431.3 601 412.7 601 394 601C375.3 601 356.7 601 337.8 601C319 601 300 601 281.2 601C262.3 601 243.7 601 225 601C206.3 601 187.7 601 169 601C150.3 601 131.7 601 112.8 601C94 601 75 601 56.2 601C37.3 601 18.7 601 9.3 601L0 601Z" fill="#e2c5aa"></path><path d="M0 532L9.3 529.5C18.7 527 37.3 522 56.2 521.7C75 521.3 94 525.7 112.8 527.7C131.7 529.7 150.3 529.3 169 529.2C187.7 529 206.3 529 225 531.2C243.7 533.3 262.3 537.7 281.2 538.3C300 539 319 536 337.8 536.8C356.7 537.7 375.3 542.3 394 541.7C412.7 541 431.3 535 450 533.5C468.7 532 487.3 535 506.2 533C525 531 544 524 562.8 521.5C581.7 519 600.3 521 619 525.7C637.7 530.3 656.3 537.7 675 537.2C693.7 536.7 712.3 528.3 731.2 526.2C750 524 769 528 787.8 529.5C806.7 531 825.3 530 844 526.5C862.7 523 881.3 517 890.7 514L900 511L900 601L890.7 601C881.3 601 862.7 601 844 601C825.3 601 806.7 601 787.8 601C769 601 750 601 731.2 601C712.3 601 693.7 601 675 601C656.3 601 637.7 601 619 601C600.3 601 581.7 601 562.8 601C544 601 525 601 506.2 601C487.3 601 468.7 601 450 601C431.3 601 412.7 601 394 601C375.3 601 356.7 601 337.8 601C319 601 300 601 281.2 601C262.3 601 243.7 601 225 601C206.3 601 187.7 601 169 601C150.3 601 131.7 601 112.8 601C94 601 75 601 56.2 601C37.3 601 18.7 601 9.3 601L0 601Z" fill="#f1d6b8"></path></svg>