<svg id="visual" viewBox="0 0 900 600" width="900" height="600" xmlns="http://www.w3.org/2000/svg" xmlns:xlink="http://www.w3.org/1999/xlink" version="1.1"><rect x="0" y="0" width="900" height="600" fill="#F1D6B8"></rect><path d="M0 223L18.8 226.3C37.7 229.7 75.3 236.3 112.8 250.2C150.3 264 187.7 285 225.2 281.5C262.7 278 300.3 250 337.8 243.7C375.3 237.3 412.7 252.7 450.2 264.8C487.7 277 525.3 286 562.8 283.7C600.3 281.3 637.7 267.7 675.2 260.8C712.7 254 750.3 254 787.8 252.2C825.3 250.3 862.7 246.7 881.3 244.8L900 243L900 601L881.3 601C862.7 601 825.3 601 787.8 601C750.3 601 712.7 601 675.2 601C637.7 601 600.3 601 562.8 601C525.3 601 487.7 601 450.2 601C412.7 601 375.3 601 337.8 601C300.3 601 262.7 601 225.2 601C187.7 601 150.3 601 112.8 601C75.3 601 37.7 601 18.8 601L0 601Z" fill="#a18276"></path><path d="M0 363L18.8 349.5C37.7 336 75.3 309 112.8 302C150.3 295 187.7 308 225.2 307.5C262.7 307 300.3 293 337.8 288C375.3 283 412.7 287 450.2 299C487.7 311 525.3 331 562.8 337.8C600.3 344.7 637.7 338.3 675.2 334.2C712.7 330 750.3 328 787.8 319.3C825.3 310.7 862.7 295.3 881.3 287.7L900 280L900 601L881.3 601C862.7 601 825.3 601 787.8 601C750.3 601 712.7 601 675.2 601C637.7 601 600.3 601 562.8 601C525.3 601 487.7 601 450.2 601C412.7 601 375.3 601 337.8 601C300.3 601 262.7 601 225.2 601C187.7 601 150.3 601 112.8 601C75.3 601 37.7 601 18.8 601L0 601Z" fill="#ab917c"></path><path d="M0 404L18.8 392.7C37.7 381.3 75.3 358.7 112.8 351.7C150.3 344.7 187.7 353.3 225.2 352.7C262.7 352 300.3 342 337.8 349.5C375.3 357 412.7 382 450.2 392C487.7 402 525.3 397 562.8 391C600.3 385 637.7 378 675.2 373C712.7 368 750.3 365 787.8 373.3C825.3 381.7 862.7 401.3 881.3 411.2L900 421L900 601L881.3 601C862.7 601 825.3 601 787.8 601C750.3 601 712.7 601 675.2 601C637.7 601 600.3 601 562.8 601C525.3 601 487.7 601 450.2 601C412.7 601 375.3 601 337.8 601C300.3 601 262.7 601 225.2 601C187.7 601 150.3 601 112.8 601C75.3 601 37.7 601 18.8 601L0 601Z" fill="#b1a085"></path><path d="M0 395L18.8 399.8C37.7 404.7 75.3 414.3 112.8 417.2C150.3 420 187.7 416 225.2 423.5C262.7 431 300.3 450 337.8 454.3C375.3 458.7 412.7 448.3 450.2 445.7C487.7 443 525.3 448 562.8 450.8C600.3 453.7 637.7 454.3 675.2 451.2C712.7 448 750.3 441 787.8 432C825.3 423 862.7 412 881.3 406.5L900 401L900 601L881.3 601C862.7 601 825.3 601 787.8 601C750.3 601 712.7 601 675.2 601C637.7 601 600.3 601 562.8 601C525.3 601 487.7 601 450.2 601C412.7 601 375.3 601 337.8 601C300.3 601 262.7 601 225.2 601C187.7 601 150.3 601 112.8 601C75.3 601 37.7 601 18.8 601L0 601Z" fill="#b6b090"></path><path d="M0 454L18.8 456.5C37.7 459 75.3 464 112.8 464C150.3 464 187.7 459 225.2 457C262.7 455 300.3 456 337.8 462.5C375.3 469 412.7 481 450.2 482.2C487.7 483.3 525.3 473.7 562.8 478.5C600.3 483.3 637.7 502.7 675.2 509.8C712.7 517 750.3 512 787.8 501.5C825.3 491 862.7 475 881.3 467L900 459L900 601L881.3 601C862.7 601 825.3 601 787.8 601C750.3 601 712.7 601 675.2 601C637.7 601 600.3 601 562.8 601C525.3 601 487.7 601 450.2 601C412.7 601 375.3 601 337.8 601C300.3 601 262.7 601 225.2 601C187.7 601 150.3 601 112.8 601C75.3 601 37.7 601 18.8 601L0 601Z" fill="#b8c19f"></path><path d="M0 564L18.8 560.3C37.7 556.7 75.3 549.3 112.8 540.2C150.3 531 187.7 520 225.2 524.3C262.7 528.7 300.3 548.3 337.8 547.7C375.3 547 412.7 526 450.2 516.8C487.7 507.7 525.3 510.3 562.8 519.3C600.3 528.3 637.7 543.7 675.2 550.2C712.7 556.7 750.3 554.3 787.8 556.5C825.3 558.7 862.7 565.3 881.3 568.7L900 572L900 601L881.3 601C862.7 601 825.3 601 787.8 601C750.3 601 712.7 601 675.2 601C637.7 601 600.3 601 562.8 601C525.3 601 487.7 601 450.2 601C412.7 601 375.3 601 337.8 601C300.3 601 262.7 601 225.2 601C187.7 601 150.3 601 112.8 601C75.3 601 37.7 601 18.8 601L0 601Z" fill="#b9d2b1"></path></svg>