<svg id="visual" viewBox="0 0 1920 1080" width="1920" height="1080" xmlns="http://www.w3.org/2000/svg" xmlns:xlink="http://www.w3.org/1999/xlink" version="1.1"><rect x="0" y="0" width="1920" height="1080" fill="#B9D2B1"></rect><defs><linearGradient id="grad1_0" x1="43.8%" y1="0%" x2="100%" y2="100%"><stop offset="14.444444444444446%" stop-color="#b9d2b1" stop-opacity="1"></stop><stop offset="85.55555555555554%" stop-color="#b9d2b1" stop-opacity="1"></stop></linearGradient></defs><defs><linearGradient id="grad2_0" x1="0%" y1="0%" x2="56.3%" y2="100%"><stop offset="14.444444444444446%" stop-color="#b9d2b1" stop-opacity="1"></stop><stop offset="85.55555555555554%" stop-color="#b9d2b1" stop-opacity="1"></stop></linearGradient></defs><g transform="translate(1920, 0)"><path d="M0 972C-117.5 945.1 -235 918.2 -364.3 879.5C-493.6 840.9 -634.8 790.4 -687.3 687.3C-739.8 584.2 -703.7 428.3 -736.3 305C-769 181.7 -870.5 90.8 -972 0L0 0Z" fill="#A18276"></path></g><g transform="translate(0, 1080)"><path d="M0 -972C134.3 -964.3 268.5 -956.7 372 -898C475.4 -839.4 548 -729.7 638.5 -638.5C729.1 -547.3 837.6 -474.5 896.2 -371.2C954.7 -267.9 963.4 -133.9 972 0L0 0Z" fill="#A18276"></path></g></svg>